<svg xmlns="http://www.w3.org/2000/svg" xmlns:xlink="http://www.w3.org/1999/xlink" width="500" zoomAndPan="magnify" viewBox="0 0 375 374.999991" height="500" preserveAspectRatio="xMidYMid meet" version="1.0"><defs><g/><clipPath id="677ffc01ad"><path d="M 89 158.457031 L 113 158.457031 L 113 197 L 89 197 Z M 89 158.457031 " clip-rule="nonzero"/></clipPath><clipPath id="a4a69fc2dc"><path d="M 54 178 L 78 178 L 78 216.957031 L 54 216.957031 Z M 54 178 " clip-rule="nonzero"/></clipPath><clipPath id="95ca40864f"><path d="M 51.816406 178 L 58 178 L 58 184 L 51.816406 184 Z M 51.816406 178 " clip-rule="nonzero"/></clipPath></defs><g fill="#00bf63" fill-opacity="1"><g transform="translate(52.464845, 213.203878)"><g><path d="M 3.46875 -26.546875 C 3.46875 -35.546875 5.945312 -42.375 10.90625 -47.03125 C 15.875 -51.6875 22.9375 -54.015625 32.09375 -54.015625 C 41.25 -54.015625 48.320312 -51.671875 53.3125 -46.984375 C 58.300781 -42.304688 60.796875 -35.492188 60.796875 -26.546875 C 60.796875 -20.578125 59.675781 -15.546875 57.4375 -11.453125 C 55.207031 -7.367188 51.957031 -4.269531 47.6875 -2.15625 L 59.796875 10.109375 L 39.5 10.109375 L 31.328125 0.921875 C 22.378906 0.765625 15.5 -1.632812 10.6875 -6.28125 C 5.875 -10.9375 3.46875 -17.691406 3.46875 -26.546875 Z M 43.359375 -29.015625 C 43.359375 -32.765625 42.394531 -35.742188 40.46875 -37.953125 C 38.539062 -40.171875 35.75 -41.28125 32.09375 -41.28125 C 28.445312 -41.28125 25.671875 -40.171875 23.765625 -37.953125 C 21.859375 -35.742188 20.90625 -32.765625 20.90625 -29.015625 L 20.90625 -24.078125 C 20.90625 -20.316406 21.859375 -17.332031 23.765625 -15.125 C 25.671875 -12.914062 28.445312 -11.8125 32.09375 -11.8125 C 35.75 -11.8125 38.539062 -12.914062 40.46875 -15.125 C 42.394531 -17.332031 43.359375 -20.316406 43.359375 -24.078125 Z M 43.359375 -29.015625 "/></g></g></g><g fill="#004aad" fill-opacity="1"><g transform="translate(116.742184, 213.203878)"><g><path d="M 24.765625 -41.671875 C 30.992188 -41.671875 36.0625 -40.628906 39.96875 -38.546875 C 43.875 -36.460938 45.828125 -33.078125 45.828125 -28.390625 L 45.828125 -12.5 C 45.828125 -11.625 46.03125 -10.898438 46.4375 -10.328125 C 46.851562 -9.765625 47.472656 -9.484375 48.296875 -9.484375 L 51.078125 -9.484375 L 51.078125 -0.625 C 50.921875 -0.519531 50.519531 -0.347656 49.875 -0.109375 C 49.238281 0.117188 48.328125 0.347656 47.140625 0.578125 C 45.960938 0.804688 44.597656 0.921875 43.046875 0.921875 C 40.066406 0.921875 37.613281 0.472656 35.6875 -0.421875 C 33.757812 -1.328125 32.4375 -2.578125 31.71875 -4.171875 C 29.757812 -2.628906 27.570312 -1.394531 25.15625 -0.46875 C 22.738281 0.457031 19.910156 0.921875 16.671875 0.921875 C 7.097656 0.921875 2.3125 -2.882812 2.3125 -10.5 C 2.3125 -14.457031 3.378906 -17.476562 5.515625 -19.5625 C 7.648438 -21.644531 10.722656 -23.070312 14.734375 -23.84375 C 18.742188 -24.613281 23.992188 -25 30.484375 -25 L 30.484375 -27 C 30.484375 -28.59375 29.925781 -29.800781 28.8125 -30.625 C 27.707031 -31.445312 26.28125 -31.859375 24.53125 -31.859375 C 22.9375 -31.859375 21.5625 -31.578125 20.40625 -31.015625 C 19.25 -30.453125 18.671875 -29.550781 18.671875 -28.3125 L 18.671875 -28 L 3.546875 -28 C 3.492188 -28.257812 3.46875 -28.625 3.46875 -29.09375 C 3.46875 -32.945312 5.304688 -36.003906 8.984375 -38.265625 C 12.660156 -40.535156 17.921875 -41.671875 24.765625 -41.671875 Z M 30.484375 -17.75 C 26.109375 -17.75 22.878906 -17.269531 20.796875 -16.3125 C 18.710938 -15.363281 17.671875 -14.09375 17.671875 -12.5 C 17.671875 -9.925781 19.421875 -8.640625 22.921875 -8.640625 C 24.921875 -8.640625 26.679688 -9.175781 28.203125 -10.25 C 29.722656 -11.332031 30.484375 -12.675781 30.484375 -14.28125 Z M 30.484375 -17.75 "/></g></g></g><g fill="#004aad" fill-opacity="1"><g transform="translate(168.205392, 213.203878)"><g><path d="M 5.171875 -45.515625 L 5.171875 -55.9375 L 20.53125 -55.9375 L 20.53125 -45.515625 Z M 5.171875 0 L 5.171875 -40.734375 L 20.53125 -40.734375 L 20.53125 0 Z M 5.171875 0 "/></g></g></g><g fill="#004aad" fill-opacity="1"><g transform="translate(193.898418, 213.203878)"><g><path d="M 29.390625 -41.734375 C 30.578125 -41.734375 31.632812 -41.59375 32.5625 -41.3125 C 33.488281 -41.03125 33.953125 -40.863281 33.953125 -40.8125 L 33.953125 -27.9375 L 29.015625 -27.9375 C 25.828125 -27.9375 23.523438 -27.113281 22.109375 -25.46875 C 20.691406 -23.820312 19.984375 -21.375 19.984375 -18.125 L 19.984375 0 L 4.625 0 L 4.625 -40.734375 L 17.203125 -40.734375 L 18.203125 -34.5625 C 19.128906 -36.925781 20.59375 -38.710938 22.59375 -39.921875 C 24.601562 -41.128906 26.867188 -41.734375 29.390625 -41.734375 Z M 29.390625 -41.734375 "/></g></g></g><g fill="#004aad" fill-opacity="1"><g transform="translate(228.155789, 213.203878)"><g><path d="M 25.6875 -41.671875 C 32.84375 -41.671875 38.460938 -39.851562 42.546875 -36.21875 C 46.640625 -32.59375 48.6875 -27.3125 48.6875 -20.375 C 48.6875 -13.425781 46.640625 -8.140625 42.546875 -4.515625 C 38.460938 -0.890625 32.84375 0.921875 25.6875 0.921875 C 18.539062 0.921875 12.9375 -0.875 8.875 -4.46875 C 4.8125 -8.070312 2.78125 -13.375 2.78125 -20.375 C 2.78125 -27.363281 4.8125 -32.660156 8.875 -36.265625 C 12.9375 -39.867188 18.539062 -41.671875 25.6875 -41.671875 Z M 25.6875 -31.25 C 20.644531 -31.25 18.125 -28.34375 18.125 -22.53125 L 18.125 -18.125 C 18.125 -12.363281 20.644531 -9.484375 25.6875 -9.484375 C 30.78125 -9.484375 33.328125 -12.363281 33.328125 -18.125 L 33.328125 -22.53125 C 33.328125 -28.34375 30.78125 -31.25 25.6875 -31.25 Z M 25.6875 -31.25 "/></g></g></g><g fill="#004aad" fill-opacity="1"><g transform="translate(279.618997, 213.203878)"><g><path d="M 23.296875 -10.421875 L 41.28125 -10.421875 L 41.28125 0 L 1.546875 0 L 1.546875 -5.015625 L 18.671875 -30.328125 L 2.46875 -30.328125 L 2.46875 -40.734375 L 40.578125 -40.734375 L 40.578125 -35.953125 Z M 23.296875 -10.421875 "/></g></g></g><path fill="#6354b1" d="M 103.160156 184.003906 L 103.160156 190.25 L 100.816406 190.25 C 100.363281 192.8125 99.359375 195.183594 97.933594 197.238281 L 99.59375 198.90625 L 95.203125 203.324219 L 93.542969 201.65625 C 91.5 203.089844 89.140625 204.097656 86.59375 204.550781 L 86.59375 206.910156 L 80.382812 206.910156 L 80.382812 204.550781 C 77.832031 204.097656 75.476562 203.089844 73.433594 201.65625 L 71.773438 203.324219 L 67.382812 198.90625 L 69.039062 197.238281 C 67.617188 195.183594 66.613281 192.8125 66.160156 190.25 L 63.816406 190.25 L 63.816406 184.003906 L 66.160156 184.003906 C 66.613281 181.441406 67.617188 179.070312 69.039062 177.015625 L 67.382812 175.347656 L 71.773438 170.929688 L 73.433594 172.597656 C 75.476562 171.167969 77.832031 170.160156 80.382812 169.703125 L 80.382812 167.34375 L 86.59375 167.34375 L 86.59375 169.703125 C 89.140625 170.160156 91.5 171.167969 93.542969 172.597656 L 95.203125 170.929688 L 99.59375 175.347656 L 97.933594 177.015625 C 99.359375 179.070312 100.363281 181.441406 100.816406 184.003906 Z M 95.910156 187.125 C 95.910156 180.226562 90.347656 174.632812 83.488281 174.632812 C 76.625 174.632812 71.0625 180.226562 71.0625 187.125 C 71.0625 194.027344 76.625 199.621094 83.488281 199.621094 C 90.347656 199.621094 95.910156 194.027344 95.910156 187.125 Z M 95.910156 187.125 " fill-opacity="1" fill-rule="evenodd"/><path fill="#463b84" d="M 83.488281 174.632812 C 90.347656 174.632812 95.910156 180.226562 95.910156 187.125 C 95.910156 194.027344 90.347656 199.621094 83.488281 199.621094 C 76.625 199.621094 71.0625 194.027344 71.0625 187.125 C 71.0625 180.226562 76.625 174.632812 83.488281 174.632812 Z M 89.699219 187.125 C 89.699219 183.675781 86.917969 180.878906 83.488281 180.878906 C 80.058594 180.878906 77.277344 183.675781 77.277344 187.125 C 77.277344 190.578125 80.058594 193.375 83.488281 193.375 C 86.917969 193.375 89.699219 190.578125 89.699219 187.125 Z M 89.699219 187.125 " fill-opacity="1" fill-rule="evenodd"/><path fill="#6354b1" d="M 89.691406 187.121094 C 89.691406 187.53125 89.652344 187.9375 89.574219 188.339844 C 89.492188 188.742188 89.375 189.132812 89.21875 189.511719 C 89.0625 189.890625 88.871094 190.25 88.644531 190.589844 C 88.417969 190.933594 88.164062 191.246094 87.875 191.539062 C 87.585938 191.828125 87.273438 192.085938 86.933594 192.316406 C 86.59375 192.542969 86.234375 192.734375 85.859375 192.890625 C 85.484375 193.046875 85.09375 193.167969 84.695312 193.246094 C 84.292969 193.328125 83.890625 193.367188 83.484375 193.367188 C 83.074219 193.367188 82.671875 193.328125 82.269531 193.246094 C 81.871094 193.167969 81.484375 193.046875 81.105469 192.890625 C 80.730469 192.734375 80.371094 192.542969 80.03125 192.316406 C 79.695312 192.085938 79.378906 191.828125 79.089844 191.539062 C 78.804688 191.246094 78.546875 190.933594 78.320312 190.589844 C 78.09375 190.25 77.902344 189.890625 77.746094 189.511719 C 77.589844 189.132812 77.472656 188.742188 77.390625 188.339844 C 77.3125 187.9375 77.273438 187.53125 77.273438 187.121094 C 77.273438 186.710938 77.3125 186.304688 77.390625 185.902344 C 77.472656 185.5 77.589844 185.109375 77.746094 184.730469 C 77.902344 184.351562 78.09375 183.992188 78.320312 183.652344 C 78.546875 183.3125 78.804688 182.996094 79.089844 182.707031 C 79.378906 182.414062 79.695312 182.15625 80.03125 181.929688 C 80.371094 181.703125 80.730469 181.507812 81.105469 181.351562 C 81.484375 181.195312 81.871094 181.078125 82.269531 180.996094 C 82.671875 180.917969 83.074219 180.875 83.484375 180.875 C 83.890625 180.875 84.292969 180.917969 84.695312 180.996094 C 85.09375 181.078125 85.484375 181.195312 85.859375 181.351562 C 86.234375 181.507812 86.59375 181.703125 86.933594 181.929688 C 87.273438 182.15625 87.585938 182.414062 87.875 182.707031 C 88.164062 182.996094 88.417969 183.3125 88.644531 183.652344 C 88.871094 183.992188 89.0625 184.351562 89.21875 184.730469 C 89.375 185.109375 89.492188 185.5 89.574219 185.902344 C 89.652344 186.304688 89.691406 186.710938 89.691406 187.121094 Z M 89.691406 187.121094 " fill-opacity="1" fill-rule="nonzero"/><g clip-path="url(#677ffc01ad)"><path fill="#333333" d="M 110.300781 196.121094 C 110.203125 196.121094 110.105469 196.109375 110.007812 196.078125 C 109.457031 195.917969 109.144531 195.339844 109.304688 194.785156 C 113.667969 179.917969 105.1875 164.253906 90.402344 159.871094 C 89.855469 159.707031 89.542969 159.128906 89.703125 158.578125 C 89.867188 158.023438 90.441406 157.710938 90.988281 157.871094 C 94.878906 159.023438 98.421875 160.910156 101.53125 163.472656 C 104.53125 165.949219 107 168.953125 108.863281 172.394531 C 110.730469 175.839844 111.898438 179.550781 112.335938 183.429688 C 112.789062 187.449219 112.4375 191.464844 111.292969 195.375 C 111.160156 195.828125 110.746094 196.121094 110.300781 196.121094 Z M 110.300781 196.121094 " fill-opacity="1" fill-rule="evenodd"/></g><path fill="#333333" d="M 110.300781 196.121094 C 109.996094 196.121094 109.695312 195.988281 109.492188 195.730469 C 109.132812 195.28125 109.207031 194.628906 109.652344 194.269531 L 113.890625 190.851562 C 114.339844 190.492188 114.992188 190.566406 115.347656 191.015625 C 115.707031 191.464844 115.632812 192.117188 115.1875 192.476562 L 110.945312 195.894531 C 110.757812 196.046875 110.527344 196.121094 110.300781 196.121094 Z M 110.300781 196.121094 " fill-opacity="1" fill-rule="evenodd"/><path fill="#333333" d="M 110.300781 196.121094 C 109.867188 196.121094 109.460938 195.847656 109.316406 195.410156 L 107.597656 190.226562 C 107.417969 189.683594 107.710938 189.09375 108.253906 188.910156 C 108.796875 188.730469 109.382812 189.023438 109.5625 189.570312 L 111.28125 194.75 C 111.460938 195.296875 111.167969 195.886719 110.628906 196.070312 C 110.519531 196.105469 110.40625 196.121094 110.300781 196.121094 Z M 110.300781 196.121094 " fill-opacity="1" fill-rule="evenodd"/><g clip-path="url(#a4a69fc2dc)"><path fill="#333333" d="M 76.28125 216.425781 C 76.183594 216.425781 76.082031 216.410156 75.984375 216.382812 C 72.097656 215.230469 68.550781 213.34375 65.445312 210.78125 C 62.441406 208.304688 59.976562 205.300781 58.109375 201.859375 C 56.246094 198.414062 55.078125 194.703125 54.640625 190.824219 C 54.1875 186.804688 54.535156 182.789062 55.683594 178.878906 C 55.84375 178.328125 56.421875 178.011719 56.96875 178.175781 C 57.519531 178.335938 57.832031 178.917969 57.667969 179.46875 C 53.308594 194.335938 61.789062 210 76.570312 214.386719 C 77.121094 214.546875 77.433594 215.125 77.273438 215.679688 C 77.140625 216.132812 76.726562 216.425781 76.28125 216.425781 Z M 76.28125 216.425781 " fill-opacity="1" fill-rule="evenodd"/></g><g clip-path="url(#95ca40864f)"><path fill="#333333" d="M 52.4375 183.628906 C 52.132812 183.628906 51.832031 183.496094 51.628906 183.238281 C 51.269531 182.789062 51.34375 182.136719 51.789062 181.777344 L 56.027344 178.359375 C 56.476562 178 57.128906 178.074219 57.484375 178.523438 C 57.84375 178.972656 57.769531 179.625 57.324219 179.984375 L 53.082031 183.402344 C 52.894531 183.554688 52.664062 183.628906 52.4375 183.628906 Z M 52.4375 183.628906 " fill-opacity="1" fill-rule="evenodd"/></g><path fill="#333333" d="M 58.394531 185.398438 C 57.960938 185.398438 57.558594 185.121094 57.414062 184.683594 L 55.695312 179.503906 C 55.511719 178.957031 55.804688 178.367188 56.347656 178.183594 C 56.890625 178.003906 57.476562 178.296875 57.660156 178.84375 L 59.375 184.027344 C 59.558594 184.574219 59.265625 185.160156 58.722656 185.34375 C 58.613281 185.378906 58.503906 185.398438 58.394531 185.398438 Z M 58.394531 185.398438 " fill-opacity="1" fill-rule="evenodd"/><path fill="#333333" d="M 86.59375 207.949219 L 80.382812 207.949219 C 79.808594 207.949219 79.347656 207.484375 79.347656 206.910156 L 79.347656 205.402344 C 77.292969 204.9375 75.351562 204.128906 73.566406 202.996094 L 72.507812 204.058594 C 72.3125 204.253906 72.050781 204.367188 71.773438 204.367188 C 71.5 204.367188 71.238281 204.253906 71.042969 204.058594 L 66.648438 199.644531 C 66.457031 199.449219 66.347656 199.183594 66.347656 198.90625 C 66.347656 198.628906 66.457031 198.367188 66.648438 198.171875 L 67.710938 197.105469 C 66.582031 195.308594 65.777344 193.359375 65.3125 191.292969 L 63.816406 191.292969 C 63.246094 191.292969 62.78125 190.824219 62.78125 190.25 L 62.78125 184.003906 C 62.78125 183.429688 63.246094 182.960938 63.816406 182.960938 L 65.3125 182.960938 C 65.777344 180.894531 66.582031 178.945312 67.710938 177.148438 L 66.648438 176.082031 C 66.457031 175.886719 66.347656 175.625 66.347656 175.347656 C 66.347656 175.070312 66.457031 174.804688 66.648438 174.609375 L 71.042969 170.195312 C 71.238281 170 71.5 169.890625 71.773438 169.890625 C 72.050781 169.890625 72.3125 170 72.507812 170.195312 L 73.566406 171.257812 C 75.351562 170.125 77.292969 169.316406 79.347656 168.851562 L 79.347656 167.34375 C 79.347656 166.769531 79.8125 166.304688 80.382812 166.304688 L 86.59375 166.304688 C 87.167969 166.304688 87.628906 166.769531 87.628906 167.34375 L 87.628906 168.851562 C 89.683594 169.316406 91.621094 170.125 93.410156 171.261719 L 94.46875 170.195312 C 94.664062 170 94.925781 169.890625 95.199219 169.890625 C 95.476562 169.890625 95.738281 170 95.933594 170.195312 L 100.324219 174.609375 C 100.519531 174.804688 100.628906 175.070312 100.628906 175.347656 C 100.628906 175.625 100.519531 175.886719 100.324219 176.082031 L 99.265625 177.148438 C 100.394531 178.945312 101.195312 180.894531 101.664062 182.960938 L 103.160156 182.960938 C 103.730469 182.960938 104.195312 183.429688 104.195312 184.003906 L 104.195312 190.25 C 104.195312 190.824219 103.730469 191.292969 103.160156 191.292969 L 101.660156 191.292969 C 101.195312 193.359375 100.394531 195.308594 99.265625 197.105469 L 100.324219 198.171875 C 100.519531 198.367188 100.628906 198.628906 100.628906 198.90625 C 100.628906 199.183594 100.519531 199.449219 100.324219 199.644531 L 95.933594 204.058594 C 95.738281 204.253906 95.476562 204.367188 95.199219 204.367188 C 94.925781 204.363281 94.664062 204.253906 94.46875 204.058594 L 93.410156 202.996094 C 91.621094 204.128906 89.683594 204.9375 87.628906 205.402344 L 87.628906 206.910156 C 87.628906 207.484375 87.164062 207.949219 86.59375 207.949219 Z M 81.417969 205.867188 L 85.558594 205.867188 L 85.558594 204.550781 C 85.558594 204.046875 85.917969 203.617188 86.414062 203.527344 C 88.773438 203.105469 90.976562 202.1875 92.949219 200.800781 C 93.363281 200.511719 93.921875 200.5625 94.273438 200.921875 L 95.199219 201.851562 L 98.128906 198.90625 L 97.203125 197.976562 C 96.847656 197.617188 96.800781 197.058594 97.085938 196.644531 C 98.464844 194.65625 99.375 192.445312 99.796875 190.066406 C 99.882812 189.570312 100.3125 189.210938 100.816406 189.210938 L 102.125 189.210938 L 102.125 185.042969 L 100.816406 185.042969 C 100.3125 185.042969 99.882812 184.683594 99.796875 184.1875 C 99.375 181.808594 98.464844 179.597656 97.085938 177.609375 C 96.800781 177.195312 96.847656 176.636719 97.203125 176.277344 L 98.128906 175.347656 L 95.203125 172.402344 L 94.273438 173.335938 C 93.921875 173.691406 93.363281 173.742188 92.949219 173.453125 C 90.976562 172.066406 88.773438 171.148438 86.414062 170.726562 C 85.917969 170.640625 85.558594 170.207031 85.558594 169.703125 L 85.558594 168.386719 L 81.417969 168.386719 L 81.417969 169.703125 C 81.417969 170.207031 81.058594 170.640625 80.5625 170.726562 C 78.199219 171.148438 76 172.066406 74.023438 173.453125 C 73.613281 173.742188 73.054688 173.691406 72.699219 173.335938 L 71.773438 172.402344 L 68.847656 175.347656 L 69.773438 176.277344 C 70.128906 176.636719 70.175781 177.195312 69.890625 177.609375 C 68.511719 179.597656 67.601562 181.808594 67.179688 184.1875 C 67.09375 184.683594 66.664062 185.042969 66.160156 185.042969 L 64.851562 185.042969 L 64.851562 189.210938 L 66.160156 189.210938 C 66.664062 189.210938 67.09375 189.570312 67.179688 190.066406 C 67.601562 192.445312 68.511719 194.65625 69.890625 196.644531 C 70.175781 197.058594 70.128906 197.617188 69.773438 197.976562 L 68.847656 198.90625 L 71.773438 201.851562 L 72.699219 200.921875 C 73.054688 200.5625 73.613281 200.511719 74.023438 200.800781 C 76 202.1875 78.199219 203.105469 80.5625 203.527344 C 81.058594 203.617188 81.417969 204.046875 81.417969 204.550781 Z M 81.417969 205.867188 " fill-opacity="1" fill-rule="evenodd"/><path fill="#333333" d="M 83.488281 200.664062 C 79.894531 200.664062 76.511719 199.253906 73.972656 196.699219 C 71.429688 194.140625 70.027344 190.742188 70.027344 187.125 C 70.027344 183.511719 71.429688 180.113281 73.972656 177.554688 C 76.511719 175 79.894531 173.589844 83.488281 173.589844 C 87.082031 173.589844 90.464844 175 93.003906 177.554688 C 95.546875 180.113281 96.949219 183.511719 96.949219 187.125 C 96.949219 190.742188 95.546875 194.140625 93.003906 196.699219 C 90.464844 199.253906 87.082031 200.664062 83.488281 200.664062 Z M 83.488281 175.675781 C 77.207031 175.675781 72.101562 180.8125 72.101562 187.128906 C 72.101562 193.441406 77.207031 198.578125 83.488281 198.578125 C 89.769531 198.578125 94.875 193.441406 94.875 187.128906 C 94.875 180.8125 89.769531 175.675781 83.488281 175.675781 Z M 83.488281 175.675781 " fill-opacity="1" fill-rule="evenodd"/><path fill="#333333" d="M 83.488281 194.414062 C 79.492188 194.414062 76.242188 191.144531 76.242188 187.125 C 76.242188 183.109375 79.492188 179.839844 83.488281 179.839844 C 87.484375 179.839844 90.734375 183.109375 90.734375 187.125 C 90.734375 191.144531 87.484375 194.414062 83.488281 194.414062 Z M 83.488281 181.921875 C 80.632812 181.921875 78.3125 184.257812 78.3125 187.125 C 78.3125 189.996094 80.632812 192.332031 83.488281 192.332031 C 86.34375 192.332031 88.664062 189.996094 88.664062 187.125 C 88.664062 184.257812 86.34375 181.921875 83.488281 181.921875 Z M 83.488281 181.921875 " fill-opacity="1" fill-rule="evenodd"/></svg>